<svg width="400" height="400" viewBox="0 0 400 400" fill="none" xmlns="http://www.w3.org/2000/svg">
<g clip-path="url(#clip0_4_80)">
<path d="M300 0H100C44.7715 0 0 44.7715 0 100V300C0 355.228 44.7715 400 100 400H300C355.228 400 400 355.228 400 300V100C400 44.7715 355.228 0 300 0Z" fill="#1E293B"/>
<path d="M125 100V300H156.25V218.75H243.75V300H275V100H243.75V181.25H156.25V100H125Z" fill="white"/>
<path d="M300 337.5C320.711 337.5 337.5 320.711 337.5 300C337.5 279.289 320.711 262.5 300 262.5C279.289 262.5 262.5 279.289 262.5 300C262.5 320.711 279.289 337.5 300 337.5Z" fill="#6366F1"/>
</g>
<defs>
<clipPath id="clip0_4_80">
<rect width="400" height="400" fill="white"/>
</clipPath>
</defs>
</svg>
