<svg width="250" height="90" viewBox="0 0 250 90" fill="none" xmlns="http://www.w3.org/2000/svg">
<mask id="mask0_57_111" style="mask-type:luminance" maskUnits="userSpaceOnUse" x="0" y="0" width="250" height="90">
<path d="M250 0H0V89.2857H250V0Z" fill="white"/>
</mask>
<g mask="url(#mask0_57_111)">
<path d="M15.8736 42.831V66.9643H4.52765V11.3057H15.5539V32.5855H16.0333C16.9566 30.1213 18.4481 28.1917 20.5078 26.7966C22.5674 25.3834 25.1509 24.6768 28.2581 24.6768C31.099 24.6768 33.5759 25.3109 35.689 26.5792C37.8196 27.8293 39.4709 29.6321 40.6428 31.9873C41.8325 34.3246 42.4184 37.1237 42.4006 40.3852V66.9643H31.0546V42.4506C31.0724 39.8779 30.4332 37.8757 29.137 36.4445C27.8586 35.0131 26.0653 34.2975 23.7571 34.2975C22.2123 34.2975 20.8451 34.6327 19.6555 35.303C18.4836 35.9732 17.5603 36.9519 16.8856 38.2382C16.2286 39.5064 15.8913 41.0373 15.8736 42.831ZM77.5634 49.1904V25.2203H88.9093V66.9643H78.0162V59.382H77.59C76.6668 61.8278 75.1309 63.7937 72.9825 65.2794C70.8518 66.765 68.2506 67.508 65.1787 67.508C62.4443 67.508 60.0387 66.8737 57.9612 65.6056C55.8837 64.3371 54.259 62.5345 53.0871 60.1971C51.9331 57.86 51.3471 55.0606 51.3293 51.7994V25.2203H62.6753V49.7341C62.6931 52.198 63.3412 54.1457 64.6197 55.5772C65.8981 57.0083 67.6115 57.7242 69.76 57.7242C71.1271 57.7242 72.4053 57.4069 73.595 56.773C74.7846 56.1206 75.7434 55.1604 76.4715 53.8922C77.2171 52.6237 77.5812 51.0568 77.5634 49.1904ZM109.331 42.831V66.9643H97.9847V25.2203H108.798V32.5855H109.277C110.183 30.1575 111.701 28.237 113.832 26.8238C115.962 25.3925 118.546 24.6768 121.582 24.6768C124.423 24.6768 126.9 25.3109 129.013 26.5792C131.126 27.8474 132.768 29.6593 133.94 32.0147C135.112 34.3517 135.698 37.1419 135.698 40.3852V66.9643H124.352V42.4506C124.37 39.8961 123.731 37.9031 122.434 36.4716C121.138 35.0223 119.354 34.2975 117.081 34.2975C115.554 34.2975 114.205 34.6327 113.033 35.303C111.878 35.9732 110.973 36.9519 110.316 38.2382C109.677 39.5064 109.348 41.0373 109.331 42.831ZM163.124 67.7797C158.933 67.7797 155.329 66.8737 152.31 65.0619C149.31 63.2318 147.002 60.6955 145.386 57.4522C143.788 54.2092 142.989 50.4767 142.989 46.2554C142.989 41.9796 143.797 38.229 145.412 35.0042C147.046 31.761 149.363 29.2335 152.364 27.4217C155.364 25.5918 158.933 24.6768 163.07 24.6768C166.639 24.6768 169.764 25.3381 172.445 26.6607C175.127 27.9833 177.248 29.8404 178.811 32.2322C180.373 34.6237 181.234 37.4318 181.394 40.6569H170.687C170.386 38.5734 169.587 36.8973 168.291 35.6292C167.012 34.3428 165.334 33.6996 163.257 33.6996C161.499 33.6996 159.963 34.1888 158.649 35.1671C157.353 36.1273 156.341 37.5316 155.613 39.3795C154.885 41.2277 154.521 43.4653 154.521 46.0922C154.521 48.7558 154.876 51.0204 155.586 52.8865C156.314 54.7529 157.335 56.1751 158.649 57.1534C159.963 58.1317 161.499 58.6209 163.257 58.6209C164.553 58.6209 165.716 58.3492 166.746 57.8055C167.793 57.2621 168.655 56.4739 169.329 55.4413C170.022 54.3903 170.474 53.1311 170.687 51.6636H181.394C181.217 54.8524 180.364 57.6607 178.837 60.0887C177.328 62.4981 175.242 64.3824 172.578 65.7414C169.915 67.1001 166.763 67.7797 163.124 67.7797ZM200.004 42.831V66.9643H188.658V11.3057H199.685V32.5855H200.164C201.087 30.1213 202.579 28.1917 204.639 26.7966C206.698 25.3834 209.282 24.6768 212.389 24.6768C215.23 24.6768 217.707 25.3109 219.82 26.5792C221.95 27.8293 223.602 29.6321 224.774 31.9873C225.963 34.3246 226.549 37.1237 226.532 40.3852V66.9643H215.186V42.4506C215.203 39.8779 214.564 37.8757 213.268 36.4445C211.989 35.0131 210.196 34.2975 207.888 34.2975C206.343 34.2975 204.976 34.6327 203.786 35.303C202.614 35.9732 201.691 36.9519 201.017 38.2382C200.36 39.5064 200.022 41.0373 200.004 42.831Z" fill="#1E293B"/>
<path d="M239.284 67.6709C237.526 67.6709 236.017 67.0367 234.757 65.7685C233.514 64.4822 232.892 62.942 232.892 61.1483C232.892 59.3728 233.514 57.8508 234.757 56.5826C236.017 55.3144 237.526 54.6802 239.284 54.6802C240.989 54.6802 242.481 55.3144 243.759 56.5826C245.037 57.8508 245.676 59.3728 245.676 61.1483C245.676 62.3441 245.375 63.4404 244.771 64.4369C244.185 65.4152 243.412 66.2035 242.454 66.8014C241.495 67.3811 240.438 67.6709 239.284 67.6709Z" fill="#6366F1"/>
</g>
</svg>
